<?xml version="1.0" encoding="UTF-8"?>
<svg id="Layer_1" data-name="Layer 1" xmlns="http://www.w3.org/2000/svg" viewBox="0 0 21.22 34.03">
  <defs>
    <style>
      .cls-1 {
        fill: #5589bc;
      }
    </style>
  </defs>
  <path class="cls-1" d="M21.22,26.91c-.1-2.2-.4-22.6-.4-22.6,0-1.4-.2-2.1-1.8-2.3C12.72,1.11,7.62.41,4.72.01,3.22-.19.72,2.41.52,3.71.52,3.71.22,11.91.02,14.71c-.1,2.8.3,3.7,1.1,4.6.8.8,12.8,12.8,14,14,1.1,1.2,2.1.9,2.1-.9v-2l1.3-1.3-.8-.9-2.3,2.3L2.62,17.61s.6-2.2,3.1-2.9c0,0,12.6,12.6,13.8,13.8,1,1.4,1.8.6,1.7-1.6ZM18.52,20.61l.3,1.6-1.5-.8-1.5.8.3-1.6-1.2-1.2,1.6-.2.7-1.5.7,1.5,1.6.2-1,1.2Z"/>
</svg>